<?xml version="1.0" encoding="UTF-8"?>
<svg width="60px" height="11px" viewBox="0 0 60 11" version="1.1" xmlns="http://www.w3.org/2000/svg" xmlns:xlink="http://www.w3.org/1999/xlink">
    <!-- Generator: Sketch 64 (93537) - https://sketch.com -->
    <title>Group</title>
    <desc>Created with Sketch.</desc>
    <g id="Page-1" stroke="none" stroke-width="1" fill="none" fill-rule="evenodd">
        <g id="Group" fill="#ED8A19" fill-rule="nonzero">
            <g id="star">
                <path d="M6.4562,0.342658 L7.68729,2.95107 C7.7729,3.13249 7.93843,3.2582 8.12991,3.28724 L10.8829,3.70555 C11.3651,3.77888 11.5575,4.39837 11.2087,4.75382 L9.21666,6.78418 C9.07823,6.92536 9.01493,7.12892 9.04772,7.32819 L9.51789,10.1952 C9.60031,10.6973 9.09621,11.0801 8.66498,10.8432 L6.20278,9.48973 C6.03156,9.39569 5.82687,9.39569 5.65565,9.48973 L3.19346,10.8432 C2.76223,11.0803 2.25813,10.6973 2.34055,10.1952 L2.81072,7.32819 C2.84351,7.12892 2.78021,6.92536 2.64178,6.78418 L0.649758,4.75382 C0.300943,4.39813 0.493338,3.77864 0.975576,3.70555 L3.72852,3.28724 C3.92001,3.2582 4.08553,3.13249 4.17114,2.95107 L5.40224,0.342658 C5.61763,-0.114219 6.24058,-0.114219 6.4562,0.342658 Z" id="Path"></path>
            </g>
            <g id="star" transform="translate(12.000000, 0.000000)">
                <path d="M6.4562,0.342658 L7.68729,2.95107 C7.7729,3.13249 7.93843,3.2582 8.12991,3.28724 L10.8829,3.70555 C11.3651,3.77888 11.5575,4.39837 11.2087,4.75382 L9.21666,6.78418 C9.07823,6.92536 9.01493,7.12892 9.04772,7.32819 L9.51789,10.1952 C9.60031,10.6973 9.09621,11.0801 8.66498,10.8432 L6.20278,9.48973 C6.03156,9.39569 5.82687,9.39569 5.65565,9.48973 L3.19346,10.8432 C2.76223,11.0803 2.25813,10.6973 2.34055,10.1952 L2.81072,7.32819 C2.84351,7.12892 2.78021,6.92536 2.64178,6.78418 L0.649758,4.75382 C0.300943,4.39813 0.493338,3.77864 0.975576,3.70555 L3.72852,3.28724 C3.92001,3.2582 4.08553,3.13249 4.17114,2.95107 L5.40224,0.342658 C5.61763,-0.114219 6.24058,-0.114219 6.4562,0.342658 Z" id="Path"></path>
            </g>
            <g id="star-copy" transform="translate(24.000000, 0.000000)">
                <path d="M6.4562,0.342658 L7.68729,2.95107 C7.7729,3.13249 7.93843,3.2582 8.12991,3.28724 L10.8829,3.70555 C11.3651,3.77888 11.5575,4.39837 11.2087,4.75382 L9.21666,6.78418 C9.07823,6.92536 9.01493,7.12892 9.04772,7.32819 L9.51789,10.1952 C9.60031,10.6973 9.09621,11.0801 8.66498,10.8432 L6.20278,9.48973 C6.03156,9.39569 5.82687,9.39569 5.65565,9.48973 L3.19346,10.8432 C2.76223,11.0803 2.25813,10.6973 2.34055,10.1952 L2.81072,7.32819 C2.84351,7.12892 2.78021,6.92536 2.64178,6.78418 L0.649758,4.75382 C0.300943,4.39813 0.493338,3.77864 0.975576,3.70555 L3.72852,3.28724 C3.92001,3.2582 4.08553,3.13249 4.17114,2.95107 L5.40224,0.342658 C5.61763,-0.114219 6.24058,-0.114219 6.4562,0.342658 Z" id="Path"></path>
            </g>
            <g id="star-copy-2" transform="translate(36.000000, 0.000000)">
                <path d="M6.4562,0.342658 L7.68729,2.95107 C7.7729,3.13249 7.93843,3.2582 8.12991,3.28724 L10.8829,3.70555 C11.3651,3.77888 11.5575,4.39837 11.2087,4.75382 L9.21666,6.78418 C9.07823,6.92536 9.01493,7.12892 9.04772,7.32819 L9.51789,10.1952 C9.60031,10.6973 9.09621,11.0801 8.66498,10.8432 L6.20278,9.48973 C6.03156,9.39569 5.82687,9.39569 5.65565,9.48973 L3.19346,10.8432 C2.76223,11.0803 2.25813,10.6973 2.34055,10.1952 L2.81072,7.32819 C2.84351,7.12892 2.78021,6.92536 2.64178,6.78418 L0.649758,4.75382 C0.300943,4.39813 0.493338,3.77864 0.975576,3.70555 L3.72852,3.28724 C3.92001,3.2582 4.08553,3.13249 4.17114,2.95107 L5.40224,0.342658 C5.61763,-0.114219 6.24058,-0.114219 6.4562,0.342658 Z" id="Path"></path>
            </g>
            <g id="star-copy-3" transform="translate(48.000000, 0.000000)">
                <path d="M6.4562,0.342658 L7.68729,2.95107 C7.7729,3.13249 7.93843,3.2582 8.12991,3.28724 L10.8829,3.70555 C11.3651,3.77888 11.5575,4.39837 11.2087,4.75382 L9.21666,6.78418 C9.07823,6.92536 9.01493,7.12892 9.04772,7.32819 L9.51789,10.1952 C9.60031,10.6973 9.09621,11.0801 8.66498,10.8432 L6.20278,9.48973 C6.03156,9.39569 5.82687,9.39569 5.65565,9.48973 L3.19346,10.8432 C2.76223,11.0803 2.25813,10.6973 2.34055,10.1952 L2.81072,7.32819 C2.84351,7.12892 2.78021,6.92536 2.64178,6.78418 L0.649758,4.75382 C0.300943,4.39813 0.493338,3.77864 0.975576,3.70555 L3.72852,3.28724 C3.92001,3.2582 4.08553,3.13249 4.17114,2.95107 L5.40224,0.342658 C5.61763,-0.114219 6.24058,-0.114219 6.4562,0.342658 Z" id="Path"></path>
            </g>
        </g>
    </g>
</svg>